HIERARCHY
ROOT root
{
  OFFSET 0 93.2929 0
  CHANNELS 6 Xposition Yposition Zposition Zrotation Xrotation Yrotation
  JOINT torso_1
  {
    OFFSET 0 5.07867 -1.15138
    CHANNELS 6 Xposition Yposition Zposition Zrotation Xrotation Yrotation
    JOINT torso_2
    {
      OFFSET 0 5.61661 1.07143
      CHANNELS 6 Xposition Yposition Zposition Zrotation Xrotation Yrotation
      JOINT torso_3
      {
        OFFSET -1.02604e-17 5.98978 0.11501
        CHANNELS 6 Xposition Yposition Zposition Zrotation Xrotation Yrotation
        JOINT torso_4
        {
          OFFSET -1.10457e-17 6.50583 -0.443523
          CHANNELS 6 Xposition Yposition Zposition Zrotation Xrotation Yrotation
          JOINT torso_5
          {
            OFFSET -1.97295e-17 7.60548 -1.50593
            CHANNELS 6 Xposition Yposition Zposition Zrotation Xrotation Yrotation
            JOINT torso_6
            {
              OFFSET -2.53307e-17 9.49737 -0.914492
              CHANNELS 6 Xposition Yposition Zposition Zrotation Xrotation Yrotation
              JOINT torso_7
              {
                OFFSET -2.90401e-17 10.5513 1.57691
                CHANNELS 6 Xposition Yposition Zposition Zrotation Xrotation Yrotation
                JOINT neck_1
                {
                  OFFSET -1.29193e-17 4.78644 0.715339
                  CHANNELS 6 Xposition Yposition Zposition Zrotation Xrotation Yrotation
                  JOINT neck_2
                  {
                    OFFSET -1.8116e-17 4.82109 0.421791
                    CHANNELS 6 Xposition Yposition Zposition Zrotation Xrotation Yrotation
                    JOINT head
                    {
                      OFFSET -2.00958e-17 4.83041 0.765062
                      CHANNELS 6 Xposition Yposition Zposition Zrotation Xrotation Yrotation
                      End Site
                      {
                        OFFSET 0 0.1 0
                      }
                    }
                  }
                }
                JOINT l_shoulder
                {
                  OFFSET 1.23299 -7.60731 7.53374
                  CHANNELS 6 Xposition Yposition Zposition Zrotation Xrotation Yrotation
                  JOINT l_up_arm
                  {
                    OFFSET 12.9547 3.2495 -3.26872
                    CHANNELS 6 Xposition Yposition Zposition Zrotation Xrotation Yrotation
                    JOINT l_low_arm
                    {
                      OFFSET 29.2081 0.0598081 0.137039
                      CHANNELS 6 Xposition Yposition Zposition Zrotation Xrotation Yrotation
                      JOINT l_hand
                      {
                        OFFSET 24.234 0.0496219 0.113701
                        CHANNELS 6 Xposition Yposition Zposition Zrotation Xrotation Yrotation
                        End Site
                        {
                          OFFSET 0.1 0 0
                        }
                      }
                    }
                  }
                }
                JOINT r_shoulder
                {
                  OFFSET -1.23299 -7.60729 7.53365
                  CHANNELS 6 Xposition Yposition Zposition Zrotation Xrotation Yrotation
                  JOINT r_up_arm
                  {
                    OFFSET -12.9547 3.2495 -3.26872
                    CHANNELS 6 Xposition Yposition Zposition Zrotation Xrotation Yrotation
                    JOINT r_low_arm
                    {
                      OFFSET -29.2081 0.0598081 0.137039
                      CHANNELS 6 Xposition Yposition Zposition Zrotation Xrotation Yrotation
                      JOINT r_hand
                      {
                        OFFSET -24.234 0.0496218 0.113702
                        CHANNELS 6 Xposition Yposition Zposition Zrotation Xrotation Yrotation
                        End Site
                        {
                          OFFSET -0.1 0 0
                        }
                      }
                    }
                  }
                }
              }
            }
          }
        }
      }
    }
  }
  JOINT l_up_leg
  {
    OFFSET 9.23673 -4.20556 2.0327
    CHANNELS 6 Xposition Yposition Zposition Zrotation Xrotation Yrotation
    JOINT l_low_leg
    {
      OFFSET -0.852353 -38.7721 -0.655187
      CHANNELS 6 Xposition Yposition Zposition Zrotation Xrotation Yrotation
      JOINT l_foot
      {
        OFFSET -2.32622 -40.4017 -6.04875
        CHANNELS 6 Xposition Yposition Zposition Zrotation Xrotation Yrotation
        JOINT l_toes
        {
          OFFSET 0.779096 -9.8844 12.4959
          CHANNELS 6 Xposition Yposition Zposition Zrotation Xrotation Yrotation
          End Site
          {
            OFFSET 0 0 0.1
          }
        }
      }
    }
  }
  JOINT r_up_leg
  {
    OFFSET -9.23673 -4.20556 2.0327
    CHANNELS 6 Xposition Yposition Zposition Zrotation Xrotation Yrotation
    JOINT r_low_leg
    {
      OFFSET 0.852353 -38.7721 -0.655187
      CHANNELS 6 Xposition Yposition Zposition Zrotation Xrotation Yrotation
      JOINT r_foot
      {
        OFFSET 2.32622 -40.4017 -6.04875
        CHANNELS 6 Xposition Yposition Zposition Zrotation Xrotation Yrotation
        JOINT r_toes
        {
          OFFSET -0.779096 -9.8844 12.4959
          CHANNELS 6 Xposition Yposition Zposition Zrotation Xrotation Yrotation
          End Site
          {
            OFFSET 0 0 0.1
          }
        }
      }
    }
  }
}
MOTION
Frames: 7
Frame Time: 0.016667
0 93.2929 0 -0 0 -0 0 5.07867 -1.15138 -0 0 -0 0 5.61661 1.07143 -0 0 -0 -1.02604e-17 5.98978 0.11501 -0 0 -0 -1.10457e-17 6.50583 -0.443523 -0 0 -0 -1.97295e-17 7.60548 -1.50593 -0 0 -0 -2.53307e-17 9.49737 -0.914492 -0 0 -0 -2.90401e-17 10.5513 1.57691 -0 0 -0 -1.29193e-17 4.78644 0.715339 -0 0 -0 -1.8116e-17 4.82109 0.421791 -0 0 -0 -2.00958e-17 4.83041 0.765062 -0 0 -0 1.23299 -7.60731 7.53374 -0 0 -0 12.9547 3.2495 -3.26872 -0 0 -0 29.2081 0.0598081 0.137039 -0 0 -0 24.234 0.0496219 0.113701 -0 0 -0 -1.23299 -7.60729 7.53365 -0 0 -0 -12.9547 3.2495 -3.26872 -0 0 -0 -29.2081 0.0598081 0.137039 -0 0 -0 -24.234 0.0496218 0.113702 -0 0 -0 9.23673 -4.20556 2.0327 -0 0 -0 -0.852353 -38.7721 -0.655187 -0 0 -0 -2.32622 -40.4017 -6.04875 -0 0 -0 0.779096 -9.8844 12.4959 -0 0 -0 -9.23673 -4.20556 2.0327 -0 0 -0 0.852353 -38.7721 -0.655187 -0 0 -0 2.32622 -40.4017 -6.04875 -0 0 -0 -0.779096 -9.8844 12.4959 -0 0 -0 
5.8258 93.945 56.045 4.71542 -2.06129 -8.53356 0 5.07867 -1.15138 -2.12757 -2.70466 0.38983 0 5.61661 1.07143 -1.8675 -1.86298 0.0898178 -1.02604e-17 5.98978 0.11501 -1.4725 -0.486986 0.113085 -1.10457e-17 6.50583 -0.443523 -1.08828 1.45169 0.09171 -1.97295e-17 7.60548 -1.50593 -0.599164 2.34247 0.209415 -2.53307e-17 9.49737 -0.914492 -0.0956008 2.50389 0.107055 -2.90401e-17 10.5513 1.57691 0.0186229 0.885451 -0.239637 -1.29193e-17 4.78644 0.715339 0.0306409 11.6477 2.56989 -1.8116e-17 4.82109 0.421791 -0.814898 -5.70227 1.02211 -2.00958e-17 4.83041 0.765062 0.134347 -8.85727 3.61679 1.23299 -7.60731 7.53374 9.50239 -2.71049 2.07024 12.9547 3.2495 -3.26872 -60.2473 13.9545 -23.0173 29.2081 0.0598081 0.137039 11.5484 -8.6284 -74.0411 24.234 0.0496219 0.113701 -0.116734 -27.4273 -3.46042 -1.23299 -7.60729 7.53365 -16.5844 -3.09011 -4.85208 -12.9547 3.2495 -3.26872 76.1616 27.4166 26.1599 -29.2081 0.0598081 0.137039 -11.6925 -9.16193 76.6806 -24.234 0.0496218 0.113702 0.684466 -11.5444 3.06568 9.23673 -4.20556 2.0327 -0.565262 2.97223 -0.814484 -0.852353 -38.7721 -0.655187 0.393295 -1.46593 0.0306228 -2.32622 -40.4017 -6.04875 -5.68926 6.07563 16.179 0.779096 -9.8844 12.4959 -9.73696e-16 -8.41945e-16 5.92308e-17 -9.23673 -4.20556 2.0327 -18.3018 -9.51903 12.1444 0.852353 -38.7721 -0.655187 1.93298 7.2051 0.00422042 2.32622 -40.4017 -6.04875 10.5912 5.71028 -17.1607 -0.779096 -9.8844 12.4959 -1.55793e-15 -5.20076e-16 -1.26988e-14 
5.50019 93.7262 56.3353 5.29876 -2.50421 -8.16581 0 5.07867 -1.15138 -2.31252 -2.74989 0.417332 0 5.61661 1.07143 -2.03093 -1.84684 0.0807 -1.02604e-17 5.98978 0.11501 -1.59861 -0.428134 0.10043 -1.10457e-17 6.50583 -0.443523 -1.18703 1.56852 0.0807862 -1.97295e-17 7.60548 -1.50593 -0.664242 2.46667 0.218818 -2.53307e-17 9.49737 -0.914492 -0.123848 2.70221 0.129333 -2.90401e-17 10.5513 1.57691 0.00371784 0.862958 -0.22329 -1.29193e-17 4.78644 0.715339 0.0267925 10.1104 2.45064 -1.8116e-17 4.82109 0.421791 -0.90684 -5.2184 0.965783 -2.00958e-17 4.83041 0.765062 0.256195 -7.76762 3.63858 1.23299 -7.60731 7.53374 7.86234 -2.47189 1.22505 12.9547 3.2495 -3.26872 -60.3153 12.9425 -22.1336 29.2081 0.0598081 0.137039 11.7 -9.19292 -76.8335 24.234 0.0496219 0.113701 -0.284743 -25.27 -3.74952 -1.23299 -7.60729 7.53365 -14.6988 -3.09214 -4.00501 -12.9547 3.2495 -3.26872 74.8346 26.5141 25.7965 -29.2081 0.0598081 0.137039 -11.7925 -9.60587 78.8568 -24.234 0.0496218 0.113702 0.672594 -10.5325 3.08135 9.23673 -4.20556 2.0327 -1.03228 3.48381 -1.18851 -0.852353 -38.7721 -0.655187 0.364964 -1.36046 0.0280829 -2.32622 -40.4017 -6.04875 -5.77445 5.58031 16.2282 0.779096 -9.8844 12.4959 1.00491e-15 -7.58444e-16 -2.42705e-17 -9.23673 -4.20556 2.0327 -18.8302 -8.17823 11.1213 0.852353 -38.7721 -0.655187 1.61316 6.01862 0.020337 2.32622 -40.4017 -6.04875 10.493 5.40381 -17.0784 -0.779096 -9.8844 12.4959 -4.16524e-15 -4.1346e-16 -1.2589e-14 
5.13484 93.4567 56.5989 5.95873 -2.85496 -7.79168 0 5.07867 -1.15138 -2.43619 -3.16523 0.447055 0 5.61661 1.07143 -2.13062 -2.12259 0.098976 -1.02604e-17 5.98978 0.11501 -1.66273 -0.545108 0.115841 -1.10457e-17 6.50583 -0.443523 -1.22121 1.6875 0.103289 -1.97295e-17 7.60548 -1.50593 -0.663591 2.73306 0.253273 -2.53307e-17 9.49737 -0.914492 -0.0905203 3.06608 0.163841 -2.90401e-17 10.5513 1.57691 -0.00148485 0.853807 -0.222208 -1.29193e-17 4.78644 0.715339 0.0530945 10.0512 2.27315 -1.8116e-17 4.82109 0.421791 -0.790047 -4.9158 0.890001 -2.00958e-17 4.83041 0.765062 -0.362229 -7.58179 3.6379 1.23299 -7.60731 7.53374 8.05574 -2.61822 1.29449 12.9547 3.2495 -3.26872 -63.8988 14.8499 -23.9754 29.2081 0.0598081 0.137039 11.7842 -9.56607 -78.6627 24.234 0.0496219 0.113701 1.32729 -20.9867 -1.53804 -1.23299 -7.60729 7.53365 -14.4085 -3.30416 -4.05482 -12.9547 3.2495 -3.26872 77.088 26.8549 26.3975 -29.2081 0.0598081 0.137039 -11.8666 -10.0007 80.78 -24.234 0.0496218 0.113702 1.17511 -7.24779 1.12149 9.23673 -4.20556 2.0327 -1.55237 3.92732 -1.26432 -0.852353 -38.7721 -0.655187 0.353882 -1.3192 0.0271034 -2.32622 -40.4017 -6.04875 -5.69178 4.97027 16.2268 0.779096 -9.8844 12.4959 -1.60074e-16 -8.06985e-16 2.42705e-17 -9.23673 -4.20556 2.0327 -19.3707 -6.94187 10.4326 0.852353 -38.7721 -0.655187 1.31063 4.89287 0.0294537 2.32622 -40.4017 -6.04875 10.3892 4.76689 -16.9251 -0.779096 -9.8844 12.4959 -1.34049e-16 -5.82486e-16 -1.27673e-14 
4.73342 93.2034 56.8226 6.59355 -3.05738 -7.46359 0 5.07867 -1.15138 -2.59973 -3.3915 0.589514 0 5.61661 1.07143 -2.30459 -2.28941 0.243621 -1.02604e-17 5.98978 0.11501 -1.81706 -0.647421 0.267187 -1.10457e-17 6.50583 -0.443523 -1.36498 1.66957 0.263431 -1.97295e-17 7.60548 -1.50593 -0.751207 2.77493 0.43494 -2.53307e-17 9.49737 -0.914492 -0.0994271 3.106 0.361448 -2.90401e-17 10.5513 1.57691 -0.00235804 0.847607 -0.204257 -1.29193e-17 4.78644 0.715339 -0.0140011 9.87592 2.06886 -1.8116e-17 4.82109 0.421791 -0.833655 -4.81316 0.793717 -2.00958e-17 4.83041 0.765062 -0.177567 -6.90186 2.99212 1.23299 -7.60731 7.53374 8.20756 -2.72282 1.38729 12.9547 3.2495 -3.26872 -66.2898 16.2368 -25.3405 29.2081 0.0598081 0.137039 11.7735 -9.51562 -78.4161 24.234 0.0496219 0.113701 0.995295 -17.7354 -2.28406 -1.23299 -7.60729 7.53365 -13.6518 -3.28455 -3.94053 -12.9547 3.2495 -3.26872 78.7591 26.4155 25.5559 -29.2081 0.0598081 0.137039 -11.8767 -10.0609 81.0722 -24.234 0.0496218 0.113702 1.31619 -4.96952 1.77825 9.23673 -4.20556 2.0327 -1.97755 4.15216 -1.53227 -0.852353 -38.7721 -0.655187 0.313629 -1.1693 0.0236125 -2.32622 -40.4017 -6.04875 -5.52043 4.49799 16.1427 0.779096 -9.8844 12.4959 7.09042e-16 -7.6769e-16 -1.50246e-17 -9.23673 -4.20556 2.0327 -19.7964 -5.92165 9.84991 0.852353 -38.7721 -0.655187 1.05435 3.93732 0.0325062 2.32622 -40.4017 -6.04875 9.5815 3.63049 -16.6381 -0.779096 -9.8844 12.4959 1.09563e-15 -6.36804e-16 -1.28155e-14 
4.31958 93.0056 56.9923 7.04747 -3.19974 -7.22793 0 5.07867 -1.15138 -2.64822 -3.3958 0.650569 0 5.61661 1.07143 -2.36115 -2.28165 0.299021 -1.02604e-17 5.98978 0.11501 -1.87586 -0.631268 0.32141 -1.10457e-17 6.50583 -0.443523 -1.42756 1.69043 0.316613 -1.97295e-17 7.60548 -1.50593 -0.801784 2.79322 0.496 -2.53307e-17 9.49737 -0.914492 -0.126867 3.12052 0.43745 -2.90401e-17 10.5513 1.57691 -0.00656829 0.833276 -0.199399 -1.29193e-17 4.78644 0.715339 -0.0233684 9.56056 2.16415 -1.8116e-17 4.82109 0.421791 -0.897356 -4.7191 0.838386 -2.00958e-17 4.83041 0.765062 -0.406108 -6.62912 2.52085 1.23299 -7.60731 7.53374 7.47355 -2.69719 1.06267 12.9547 3.2495 -3.26872 -66.9422 15.5534 -25.172 29.2081 0.0598081 0.137039 11.7969 -9.628 -78.9653 24.234 0.0496219 0.113701 -0.0268078 -16.18 -3.67795 -1.23299 -7.60729 7.53365 -13.2263 -3.24554 -3.78924 -12.9547 3.2495 -3.26872 78.9704 25.8945 25.1941 -29.2081 0.0598081 0.137039 -11.8795 -10.0781 81.1559 -24.234 0.0496218 0.113702 1.38611 -4.09703 3.10721 9.23673 -4.20556 2.0327 -2.13704 4.29517 -1.6946 -0.852353 -38.7721 -0.655187 0.257228 -0.959189 0.018897 -2.32622 -40.4017 -6.04875 -6.05888 3.82472 16.2984 0.779096 -9.8844 12.4959 1.21756e-15 -7.45443e-16 -3.72721e-17 -9.23673 -4.20556 2.0327 -20.0246 -5.26245 9.28716 0.852353 -38.7721 -0.655187 0.921485 3.44144 0.0324014 2.32622 -40.4017 -6.04875 9.11368 2.34615 -16.4004 -0.779096 -9.8844 12.4959 -2.26061e-15 -4.94939e-16 -1.26705e-14 
3.93636 92.8848 57.0757 7.24671 -3.40835 -7.02061 0 5.07867 -1.15138 -2.6198 -3.25118 0.638246 0 5.61661 1.07143 -2.3379 -2.1587 0.280242 -1.02604e-17 5.98978 0.11501 -1.86366 -0.551068 0.296904 -1.10457e-17 6.50583 -0.443523 -1.42629 1.70174 0.28933 -1.97295e-17 7.60548 -1.50593 -0.816134 2.75676 0.469471 -2.53307e-17 9.49737 -0.914492 -0.15602 3.08164 0.421489 -2.90401e-17 10.5513 1.57691 -0.0183943 0.823667 -0.191995 -1.29193e-17 4.78644 0.715339 -0.0265449 8.7832 2.21344 -1.8116e-17 4.82109 0.421791 -1.08058 -4.5187 0.854363 -2.00958e-17 4.83041 0.765062 -0.56262 -6.13759 2.59885 1.23299 -7.60731 7.53374 6.45254 -2.43396 0.501373 12.9547 3.2495 -3.26872 -66.9379 14.8577 -23.8352 29.2081 0.0598081 0.137039 11.9053 -10.2439 -81.9602 24.234 0.0496219 0.113701 -0.106592 -15.324 -3.37303 -1.23299 -7.60729 7.53365 -12.5458 -3.14304 -3.38513 -12.9547 3.2495 -3.26872 78.6236 25.4918 24.7044 -29.2081 0.0598081 0.137039 -11.9135 -10.2992 82.2277 -24.234 0.0496218 0.113702 1.55249 -3.58163 3.72689 9.23673 -4.20556 2.0327 -2.05432 4.39206 -1.8845 -0.852353 -38.7721 -0.655187 0.17708 -0.660477 0.0125498 -2.32622 -40.4017 -6.04875 -6.3471 3.42773 16.3829 0.779096 -9.8844 12.4959 -5.57622e-16 -8.19408e-16 3.66936e-17 -9.23673 -4.20556 2.0327 -20.0114 -4.93356 9.03353 0.852353 -38.7721 -0.655187 0.932445 3.48235 0.0324537 2.32622 -40.4017 -6.04875 8.7524 1.47715 -16.2036 -0.779096 -9.8844 12.4959 -2.19589e-15 -4.93494e-16 -1.26783e-14 
